<?xml version="1.0" encoding="UTF-8" standalone="no"?>
<!-- Created using Karbon, part of Calligra: http://www.calligra.org/karbon -->

<svg
   xmlns:dc="http://purl.org/dc/elements/1.1/"
   xmlns:cc="http://creativecommons.org/ns#"
   xmlns:rdf="http://www.w3.org/1999/02/22-rdf-syntax-ns#"
   xmlns:svg="http://www.w3.org/2000/svg"
   xmlns="http://www.w3.org/2000/svg"
   xmlns:sodipodi="http://sodipodi.sourceforge.net/DTD/sodipodi-0.dtd"
   xmlns:inkscape="http://www.inkscape.org/namespaces/inkscape"
   width="251pt"
   height="251pt"
   version="1.1"
   id="svg15"
   sodipodi:docname="unexpo_logo.svg"
   inkscape:version="0.92.4 5da689c313, 2019-01-14">
  <metadata
     id="metadata19">
    <rdf:RDF>
      <cc:Work
         rdf:about="">
        <dc:format>image/svg+xml</dc:format>
        <dc:type
           rdf:resource="http://purl.org/dc/dcmitype/StillImage" />
        <dc:title></dc:title>
      </cc:Work>
    </rdf:RDF>
  </metadata>
  <sodipodi:namedview
     pagecolor="#ffffff"
     bordercolor="#666666"
     borderopacity="1"
     objecttolerance="10"
     gridtolerance="10"
     guidetolerance="10"
     inkscape:pageopacity="0"
     inkscape:pageshadow="2"
     inkscape:window-width="1920"
     inkscape:window-height="1009"
     id="namedview17"
     showgrid="false"
     inkscape:zoom="1.251579"
     inkscape:cx="291.19781"
     inkscape:cy="286.89543"
     inkscape:window-x="0"
     inkscape:window-y="0"
     inkscape:window-maximized="1"
     inkscape:current-layer="svg15" />
  <defs
     id="defs2" />
  <g
     id="layer0"
     transform="translate(-82.296045,-78.01902)">
    <path
       id="shape0"
       transform="matrix(0.125,0,0,-0.125,83.125,305.635)"
       d="M 620,1065.08 0,445.084 l 225,-225 C 438,7.08363 452,-4.91637 480,1.08363 c 17,3 33,8.99997 38,12.99997 4,4 -15,32 -41,62 C 296,278.084 155,440.084 155,445.084 c 0,4 116,137 258,296 141,160 379,426.996 527,593.996 267,301 310,350 303,350 -2,0 -282,-279 -623,-620 z"
       inkscape:connector-curvature="0"
       style="fill:#bcc8d8" />
    <path
       id="shape1"
       transform="matrix(0.125,0,0,-0.125,119.875,300.642)"
       d="m 640,1223.14 c -95,-123 -261,-335.004 -367,-473.004 -107,-137 -212,-271 -234,-297 l -39,-47 93,-118 c 52,-65 124,-157 161,-204.9998 67,-85.99999 67,-86.99999 105,-80.99999 20,3 38,7 39,7 1,0.99999 -58,90.99979 -132,198.99979 l -134,197 196,287 c 360,530.004 459,678.004 476,716.004 9,20 15,37 13,37 -2,0 -81,-100 -177,-222 z"
       inkscape:connector-curvature="0"
       style="fill:#e2e6ef" />
    <path
       id="shape2"
       transform="matrix(0.125,0,0,-0.125,155,297.375)"
       d="M 233,786 0,379 108,189 215,0 255,6 c 22,3 41,7 43,8 1,1 -36,83 -83,183 l -86,181 110,233 c 60,128 137,291 171,362 51,109 60,137 58,175 -3,45 -4,43 -235,-362 z"
       inkscape:connector-curvature="0"
       style="fill:#e2e6ef" />
    <path
       id="shape3"
       transform="matrix(0.125,0,0,-0.125,190,295.703)"
       d="m 216,974.626 c -3,-8 -53,-144 -111,-302 -58,-159 -105,-296 -105,-305 0,-9 28,-95 62,-189 C 124,7.62646 125,5.62646 155,4.62646 c 17,0 38,-2 48,-3.999998 9,-2.000002 17,0.999998 17,5.999998 0,5.00004 -20,88.00004 -45,183.99954 l -46,175 52,197 c 28,109 60,232 71,275 l 20,76 -26,38 c -17,26 -27,33 -30,23 z"
       inkscape:connector-curvature="0"
       style="fill:#f6f7fc" />
    <path
       id="shape4"
       transform="matrix(0.125,0,0,-0.125,225,299.5)"
       d="M 65,853 C 52,787 0,426 0,396 0,377 12,284 27,190 L 53,19 99,10 145,0 v 417 l 1,416 -38,21 -38,20 z"
       inkscape:connector-curvature="0"
       style="fill:#f6f7fc" />
    <path
       id="shape5"
       transform="matrix(0.125,0,0,-0.125,263.819,401.961)"
       d="m 739.45,1658.69 c -8,-2 -21,-6 -28,-9 -16,-5 -2,-22 212,-263 80,-91 146,-168 146,-171 0,-6 -155,-181 -859,-975.004 C 108.45,125.686 13.4505,17.6856 0.450457,0.685629 -12.5495,-15.3144 257.45,250.686 600.45,592.686 l 624,623.004 -225,225 c -124,124 -229,225 -235,224 -5,0 -17,-3 -25,-6 z"
       inkscape:connector-curvature="0"
       style="fill:#bcc8d8" />
    <path
       id="shape6"
       transform="matrix(0.125,0,0,-0.125,277.8,380)"
       d="m 455.604,1443 c -16,-2 -28,-9 -28,-14 0,-6 58,-95 130,-199 l 129,-190 -327,-482 C 74.6038,137 -13.3962,0 1.60376,0 c 2,0 114.00024,141 247.00024,313 134,171 317,405 406,520 l 163,207 -93,118 c -51,64 -123,156 -160,205 -38,48 -71,86 -75,86 -4,-1 -19,-4 -34,-6 z"
       inkscape:connector-curvature="0"
       style="fill:#e2e6ef" />
    <path
       id="shape7"
       transform="matrix(0.125,0,0,-0.125,256.75,309.75)"
       d="M 1,457 0,41 38,20 76,0 81,21 c 2,12 19,120 38,239 l 33,218 -30,188 -29,189 -46,9 -46,10 z"
       inkscape:connector-curvature="0"
       style="fill:#f6f7fc" />
    <path
       id="shape8"
       transform="matrix(0.125,0,0,-0.125,286.25,349.436)"
       d="m 207,1167.49 c -25,-2 -37,-8 -34,-15 3,-7 42,-90 87,-184.001 l 82,-173 -171,-362 C 21,115.489 0,64.4891 0,21.4891 c 0,-49 2,-46 235,361.9999 l 235,412 -101,178 c -56,97.001 -106,182.001 -113,187.001 -6,6 -28,9 -49,7 z"
       inkscape:connector-curvature="0"
       style="fill:#e2e6ef" />
    <path
       id="shape9"
       transform="matrix(0.125,0,0,-0.125,276,326.67)"
       d="m 52,969.362 c 0,-5 21,-87 46,-182 l 47,-173 -73,-274 -72,-274.9998 26,-38 C 43,1.36216 53,-5.63784 57,4.36216 144,238.362 272,600.362 272,612.362 c 0,9 -28,93 -62,188 l -63,171 -47,4 c -27,2 -48,-1 -48,-6 z"
       inkscape:connector-curvature="0"
       style="fill:#f6f7fc" />
  </g>
</svg>
